<svg xmlns="http://www.w3.org/2000/svg" width="64" height="64" viewBox="0 0 64 64"><path stroke="#449FDB" d="M0 0"/><path d="M52.95 36c2.2 0 4.496-1.73 5.1-3.846l5.802-20.308c.604-2.115-.7-3.846-2.9-3.846H20c0-4.418-3.582-8-8-8H0v8h12v34c0 3.314 2.686 6 6 6h38c2.21 0 4-1.79 4-4s-1.79-4-4-4H20v-4h32.95zM20 16h36.175l-3.43 12H20V16zm4 43c0 2.75-2.25 5-5 5h-2c-2.75 0-5-2.25-5-5v-2c0-2.75 2.25-5 5-5h2c2.75 0 5 2.25 5 5v2zm36 0c0 2.75-2.25 5-5 5h-2c-2.75 0-5-2.25-5-5v-2c0-2.75 2.25-5 5-5h2c2.75 0 5 2.25 5 5v2z" class="i-cart cart-price"/></svg>